<?xml version="1.0" encoding="utf-8"?><!-- Uploaded to: SVG Repo, www.svgrepo.com, Generator: SVG Repo Mixer Tools -->
<svg width="800px" height="800px" viewBox="0 0 24 24" fill="none" xmlns="http://www.w3.org/2000/svg">
<path opacity="0.5" d="M13.7916 21.319L13.1953 22.3265C12.6638 23.2244 11.3361 23.2244 10.8046 22.3265L10.2083 21.319C9.7458 20.5376 9.51454 20.1469 9.14307 19.9308C8.7716 19.7148 8.30391 19.7067 7.36854 19.6906C5.98764 19.6668 5.12158 19.5822 4.39524 19.2813C3.04759 18.7231 1.97688 17.6524 1.41866 16.3048C1 15.294 1 14.0127 1 11.45V10.35C1 6.74923 1 4.94884 1.81048 3.62626C2.26399 2.8862 2.8862 2.26399 3.62626 1.81048C4.94884 1 6.74923 1 10.35 1H13.65C17.2508 1 19.0512 1 20.3737 1.81048C21.1138 2.26399 21.736 2.8862 22.1895 3.62626C23 4.94884 23 6.74923 23 10.35V11.45C23 14.0127 23 15.294 22.5813 16.3048C22.0231 17.6524 20.9524 18.7231 19.6048 19.2813C18.8784 19.5822 18.0123 19.6668 16.6314 19.6906C15.696 19.7067 15.2284 19.7148 14.8569 19.9308C14.4854 20.1469 14.2542 20.5376 13.7916 21.319Z" fill="#1C274C"/>
<path fill-rule="evenodd" clip-rule="evenodd" d="M15.267 6.82953C15.5892 6.50734 16.1116 6.50734 16.4338 6.82953L16.6225 7.01826C16.636 7.03178 16.6495 7.04526 16.6629 7.0587C17.3618 7.75753 17.9446 8.34027 18.345 8.8651C18.7677 9.41906 19.0641 10.0043 19.0641 10.7129C19.0641 11.4214 18.7677 12.0067 18.345 12.5607C17.9446 13.0855 17.3618 13.6683 16.6629 14.3671L16.4338 14.5963C16.1116 14.9184 15.5892 14.9184 15.267 14.5963C14.9448 14.2741 14.9448 13.7517 15.267 13.4295L15.4558 13.2408C16.2056 12.491 16.708 11.9861 17.0332 11.5598C17.3439 11.1526 17.4141 10.9156 17.4141 10.7129C17.4141 10.5102 17.3439 10.2731 17.0332 9.86596C16.708 9.43973 16.2056 8.93481 15.4558 8.18498L15.267 7.99625C14.9448 7.67407 14.9448 7.15171 15.267 6.82953Z" fill="#1C274C"/>
<path fill-rule="evenodd" clip-rule="evenodd" d="M13.6367 4.60415C14.0768 4.72208 14.338 5.17446 14.2201 5.61457L11.3731 16.2398C11.2552 16.6799 10.8028 16.941 10.3627 16.8231C9.92256 16.7052 9.66138 16.2528 9.77931 15.8127L12.6263 5.18751C12.7442 4.7474 13.1966 4.48622 13.6367 4.60415Z" fill="#1C274C"/>
<path fill-rule="evenodd" clip-rule="evenodd" d="M8.73297 6.82953C8.41079 6.50734 7.88843 6.50734 7.56625 6.82953L7.37752 7.01826C7.36399 7.03178 7.35051 7.04526 7.33707 7.0587C6.63819 7.75753 6.05542 8.34027 5.65499 8.8651C5.23233 9.41906 4.93588 10.0043 4.93588 10.7129C4.93588 11.4214 5.23233 12.0067 5.65499 12.5607C6.05542 13.0855 6.6382 13.6683 7.33708 14.3671L7.56625 14.5963C7.88843 14.9184 8.41079 14.9184 8.73297 14.5963C9.05516 14.2741 9.05516 13.7517 8.73297 13.4295L8.54424 13.2408C7.79442 12.491 7.29197 11.9861 6.96677 11.5598C6.6561 11.1526 6.58588 10.9156 6.58588 10.7129C6.58588 10.5102 6.6561 10.2731 6.96677 9.86596C7.29197 9.43973 7.79442 8.93481 8.54424 8.18498L8.73297 7.99625C9.05516 7.67407 9.05516 7.15171 8.73297 6.82953Z" fill="#1C274C"/>
</svg>